<svg xmlns="http://www.w3.org/2000/svg" xmlns:xlink="http://www.w3.org/1999/xlink" viewBox="0 0 591.59 617.45"><defs><style>.cls-1{fill:none;clip-rule:evenodd;}.cls-2{clip-path:url(#clip-path);}.cls-3{fill:url(#linear-gradient);}.cls-4,.cls-7{fill:#3c0376;}.cls-4,.cls-5,.cls-6,.cls-7{fill-rule:evenodd;}.cls-4{opacity:0.4;}.cls-5,.cls-6{fill:#f35ffb;}.cls-5{opacity:0.35;}.cls-6{opacity:0.6;}.cls-7{opacity:0.5;}.cls-8{fill:#080251;}</style><clipPath id="clip-path" transform="translate(-186.71 -144.85)"><path class="cls-1" d="M653.8,703.52A268.52,268.52,0,0,1,294,654.86a40.82,40.82,0,0,0,37.64-60.05l52.13-75.93,33.18-48.32A40.89,40.89,0,0,0,441.28,466l96.88,66.24a40.79,40.79,0,1,0,76.45-14.38l33.17-48.4,52.74-76.93,20.06,14.83,2.63-41.58L725,337.29a268.38,268.38,0,0,1-71.2,366.23"/></clipPath><linearGradient id="linear-gradient" x1="57.96" y1="709.2" x2="615.08" y2="127.61" gradientUnits="userSpaceOnUse"><stop offset="0" stop-color="#3c0376"/><stop offset="1" stop-color="#f143fa"/></linearGradient></defs><g id="Halbkreis"><g id="halbkreis-2" data-name="halbkreis"><g class="cls-2"><rect class="cls-3" x="107.24" y="192.44" width="484.35" height="425"/></g></g></g><g id="Shadow_links" data-name="Shadow links"><path class="cls-4" d="M441.28,466a41,41,0,0,1-24.38,4.55l-33.18,48.31-52.14,75.93a40.79,40.79,0,0,1-28.42,59.37,41.15,41.15,0,0,1-9.21.68A268.65,268.65,0,0,0,349,704.94c76.92,52.6,177.69,58.51,259.66,23.93C356.62,682.37,411.19,505,441.28,466Z" transform="translate(-186.71 -144.85)"/></g><g id="Layer_14" data-name="Layer 14"><path class="cls-4" d="M331.58,594.81a40.79,40.79,0,0,1-28.42,59.37,41.15,41.15,0,0,1-9.21.68,268.07,268.07,0,0,0,314.74,74C409.55,738.65,331.58,594.81,331.58,594.81Z" transform="translate(-186.71 -144.85)"/></g><g id="Shadow_rechts" data-name="Shadow rechts"><path class="cls-5" d="M723.21,365.8l-2.63,41.58-20.06-14.83-52.74,76.93-33.17,48.4a40.81,40.81,0,0,1-59,53c29.13,20.5,90.38,25.86,108.09,67,8.63,20.08,1.28,48.67-55,91A268.08,268.08,0,0,0,725,337.29Z" transform="translate(-186.71 -144.85)"/><path class="cls-6" d="M723.21,365.8l-2.63,41.58C743.43,491,743.26,650.06,608.69,728.87A268.08,268.08,0,0,0,725,337.29Z" transform="translate(-186.71 -144.85)"/></g><g id="shadow_arrows" data-name="shadow arrows"><path class="cls-7" d="M538.57,544.73a41,41,0,0,1-.41-12.47L441.28,466a41,41,0,0,1-23.15,4.68l-.35.48,136.14,98.45A40.65,40.65,0,0,1,538.57,544.73Z" transform="translate(-186.71 -144.85)"/><path class="cls-7" d="M416.9,470.56l-33.18,48.32-52.13,75.93a40.82,40.82,0,0,1-1.5,41.09L441.28,466a40.89,40.89,0,0,1-24.38,4.54Z" transform="translate(-186.71 -144.85)"/><path class="cls-7" d="M647.78,469.48l-33.17,48.4A40.85,40.85,0,0,1,612,560.77h0L715.25,403.44l-14.73-10.89Z" transform="translate(-186.71 -144.85)"/></g><g id="kreis_1" data-name="kreis 1"><circle id="Kreis_1-2" data-name="Kreis 1" class="cls-8" cx="109.04" cy="468.86" r="40.9"/></g><g id="Kreis_2" data-name="Kreis 2"><circle id="Kreis_2-2" data-name="Kreis 2" class="cls-8" cx="235.39" cy="285.24" r="40.9"/></g><g id="Kreis_3" data-name="Kreis 3"><circle class="cls-8" cx="392.19" cy="392.5" r="40.9"/></g><g id="Linie_1_zu_2" data-name="Linie  1 zu 2"><polygon class="cls-8" points="200.85 302.51 112.67 430.68 142.67 452.5 231.75 323.42 200.85 302.51"/></g><g id="Linie_2_zu_3" data-name="Linie 2 zu 3"><polygon class="cls-8" points="373.56 357.05 272.66 287.97 252.66 319.78 353.56 388.87 373.56 357.05"/></g><g id="Richtung"><polygon class="cls-8" points="393.1 357.51 484 225.7 460.82 208.88 538.99 179.8 533.54 262.52 513.54 247.97 424 378.41 393.1 357.51"/></g><g id="Dolphin-2" data-name="Dolphin"><path class="cls-8" d="M345.76,194.14S240,237.05,225.24,349.71s17,115.15-18.89,159.42c0,0-25.92,39.1-18.2,69,0,0,18-31.5,39.55-38s31.84-27.21,31.84-27.21,21.39,1.21,29.5-3.18,37.42-10.78,48-6.29c0,0-27.77-30.52-69-29.18,0,0-26.49-.24-9.35-55.58s43.41-99,121.7-106.57c0,0,4.26,56.56-21.36,80.15,0,0,61.61-16.2,86.09-77.82,0,0,47.93,12.44,97.65,2.17,0,0,29.92-4.16,50,3.91,38.77,15.61,81,16.23,56.55-4.25-16-13.42-37-23.47-37-23.47s16.81-25-18.52-52.41-66.62-42.25-85.38-47.83-45.84-10-79.69-24.3S359,133.24,313.11,153C313.11,153,388.07,179.17,345.76,194.14Z" transform="translate(-186.71 -144.85)"/></g></svg>