<svg xmlns="http://www.w3.org/2000/svg" xmlns:xlink="http://www.w3.org/1999/xlink" viewBox="0 0 841.81 735.07"><defs><style>.cls-1{fill:none;clip-rule:evenodd;}.cls-2{clip-path:url(#clip-path);}.cls-3{fill:url(#linear-gradient);}.cls-4,.cls-7,.cls-9{fill:#3c0376;}.cls-4,.cls-5,.cls-6,.cls-7{fill-rule:evenodd;}.cls-4{opacity:0.4;}.cls-5,.cls-6{fill:#f35ffb;}.cls-5{opacity:0.35;}.cls-6{opacity:0.6;}.cls-7{opacity:0.5;}.cls-8{fill:#080251;}.cls-9{opacity:0.8;}</style><clipPath id="clip-path" transform="translate(-77.57 -109.47)"><path class="cls-1" d="M630.85,591.88a231.84,231.84,0,0,1-310.72-42,35.25,35.25,0,0,0,36.07-41.71A35.71,35.71,0,0,0,352.63,498l45-65.56,28.65-41.72a35.41,35.41,0,0,0,21.06-3.92L531,444a35.56,35.56,0,0,0,.35,10.77A35.23,35.23,0,1,0,597,431.58l28.65-41.79,45.53-66.44,17.33,12.81,2.27-35.9,1.55-24.62a231.77,231.77,0,0,1-61.49,316.24"/></clipPath><linearGradient id="linear-gradient" x1="200.01" y1="612.39" x2="681.07" y2="110.19" gradientUnits="userSpaceOnUse"><stop offset="0" stop-color="#3c0376"/><stop offset="1" stop-color="#f143fa"/></linearGradient></defs><g id="Halbkreis"><g id="halbkreis-2" data-name="halbkreis"><g class="cls-2"><rect class="cls-3" x="242.56" y="166.17" width="418.23" height="366.98"/></g></g></g><g id="Shadow_links" data-name="Shadow links"><path class="cls-4" d="M447.35,386.8a35.41,35.41,0,0,1-21.06,3.92l-28.65,41.72-45,65.56a35.24,35.24,0,0,1-32.49,51.85,231.64,231.64,0,0,0,47.56,43.25c66.42,45.41,153.43,50.52,224.21,20.66C374.24,573.61,421.37,420.48,447.35,386.8Z" transform="translate(-77.57 -109.47)"/></g><g id="Layer_14" data-name="Layer 14"><path class="cls-4" d="M352.62,498a35.24,35.24,0,0,1-32.49,51.85A231.44,231.44,0,0,0,591.9,613.76C419.94,622.2,352.62,498,352.62,498Z" transform="translate(-77.57 -109.47)"/></g><g id="Shadow_rechts" data-name="Shadow rechts"><path class="cls-5" d="M690.79,300.26l-2.27,35.9-17.33-12.81-45.53,66.44L597,431.58a35.23,35.23,0,0,1-50.92,45.76c25.15,17.71,78,22.33,93.33,57.89,7.46,17.34,1.11,42-47.52,78.53A231.48,231.48,0,0,0,692.34,275.64Z" transform="translate(-77.57 -109.47)"/><path class="cls-6" d="M690.79,300.26l-2.27,35.9c19.73,72.16,19.58,209.55-96.62,277.6A231.48,231.48,0,0,0,692.34,275.64Z" transform="translate(-77.57 -109.47)"/></g><g id="shadow_arrows" data-name="shadow arrows"><path class="cls-7" d="M531.35,454.76A35.56,35.56,0,0,1,531,444L447.35,386.8a35.35,35.35,0,0,1-20,4l-.3.42,117.56,85A35.12,35.12,0,0,1,531.35,454.76Z" transform="translate(-77.57 -109.47)"/><path class="cls-7" d="M426.29,390.72l-28.65,41.72-45,65.56a35.71,35.71,0,0,1,3.57,10.14,35.16,35.16,0,0,1-4.86,25.34l96-146.68a35.41,35.41,0,0,1-21.06,3.92Z" transform="translate(-77.57 -109.47)"/><path class="cls-7" d="M625.66,389.79,597,431.58a35.21,35.21,0,0,1-2.29,37h0l89.2-135.85-12.73-9.41Z" transform="translate(-77.57 -109.47)"/></g><g id="Tradolphin"><path class="cls-8" d="M128.54,735.11V844.54H104.85V735.11H77.57V699.32h78.24v35.79Z" transform="translate(-77.57 -109.47)"/><path class="cls-8" d="M222.11,844.54l-9.89-25.91a72.71,72.71,0,0,1-17.55,5.45v20.46H170.81V699.32h74.82v65.62a57.43,57.43,0,0,1-14,38.18l15.85,41.42Zm-.34-109.43h-27.1v64.77a35,35,0,0,0,11-4.94,36.59,36.59,0,0,0,14.15-18.41,35.13,35.13,0,0,0,2-11.59Z" transform="translate(-77.57 -109.47)"/><path class="cls-8" d="M316,844.54V824.59h-27.1v19.95H265.06V771.07a58.65,58.65,0,0,1,12.1-36H262.5V699.32h77.39V844.54Zm0-108.24a35,35,0,0,0-10.9,4.86,36.63,36.63,0,0,0-8.53,7.93A37.21,37.21,0,0,0,291,759.31a34,34,0,0,0-2.05,11.76V788.8H316Z" transform="translate(-77.57 -109.47)"/><path class="cls-9" d="M429.37,816.24a26.33,26.33,0,0,1-2.3,10.91A29.64,29.64,0,0,1,412,842.24a26.33,26.33,0,0,1-10.91,2.3h-37V699.32h37a26.17,26.17,0,0,1,10.91,2.3,29.58,29.58,0,0,1,15.09,15.08,26.36,26.36,0,0,1,2.3,10.91Zm-23.86-81.13H388v73.63h17.56Z" transform="translate(-77.57 -109.47)"/><path class="cls-9" d="M516,816.24a27.25,27.25,0,0,1-2.22,10.91,28.64,28.64,0,0,1-6.05,9,30,30,0,0,1-8.95,6.14,26.74,26.74,0,0,1-11.08,2.3H472.83a27.52,27.52,0,0,1-11.08-2.22,29.58,29.58,0,0,1-9-6.05,27.94,27.94,0,0,1-8.35-20V727.61a26.74,26.74,0,0,1,2.3-11,28.65,28.65,0,0,1,6.22-9,29.77,29.77,0,0,1,9-6.05,27.28,27.28,0,0,1,10.91-2.21h14.83a27.84,27.84,0,0,1,11,2.21,28,28,0,0,1,15.09,15.09,27.85,27.85,0,0,1,2.22,11Zm-23.7-81.13h-24v73.63h24Z" transform="translate(-77.57 -109.47)"/><path class="cls-9" d="M531,844.54V699.15h23.86V808.74h38.87v35.8Z" transform="translate(-77.57 -109.47)"/><path class="cls-9" d="M683.5,764.94a56.65,56.65,0,0,1-3.92,20.88A61.71,61.71,0,0,1,652.73,817a57.64,57.64,0,0,1-20.19,7.07v20.46H608.67V699.32H683.5Zm-23.86-29.83h-27.1v64.77a35,35,0,0,0,11-4.94,36.59,36.59,0,0,0,14.15-18.41,35.13,35.13,0,0,0,2-11.59Z" transform="translate(-77.57 -109.47)"/><path class="cls-9" d="M747.08,844.54V784.37H722.36v60.17H698.5V699.15h23.86V748.4h24.72V699.15h23.86V844.54Z" transform="translate(-77.57 -109.47)"/><path class="cls-9" d="M795.14,844.54V699.15H819V844.54Z" transform="translate(-77.57 -109.47)"/><path class="cls-9" d="M895.53,844.54V779.25l-28.47-25.56v90.85H843.2V699.32h21.3l31,27.95V699.15h23.86V844.54Z" transform="translate(-77.57 -109.47)"/></g><g id="kreis_1" data-name="kreis 1"><circle id="Kreis_1-2" data-name="Kreis 1" class="cls-8" cx="244.11" cy="404.85" r="35.32"/></g><g id="Kreis_2" data-name="Kreis 2"><circle id="Kreis_2-2" data-name="Kreis 2" class="cls-8" cx="353.21" cy="246.3" r="35.32"/></g><g id="Kreis_3" data-name="Kreis 3"><circle class="cls-8" cx="488.61" cy="338.92" r="35.32"/></g><g id="Linie_1_zu_2" data-name="Linie  1 zu 2"><polygon class="cls-8" points="323.38 261.21 247.25 371.89 273.15 390.72 350.07 279.27 323.38 261.21"/></g><g id="Linie_2_zu_3" data-name="Linie 2 zu 3"><polygon class="cls-8" points="472.52 308.31 385.39 248.66 368.12 276.13 455.25 335.78 472.52 308.31"/></g><g id="Richtung"><polygon class="cls-8" points="489.39 308.7 567.88 194.89 547.87 180.37 615.37 155.25 610.66 226.68 593.39 214.12 516.08 326.75 489.39 308.7"/></g><g id="Dolphin-2" data-name="Dolphin"><path class="cls-8" d="M364.87,152S273.55,189.08,260.8,286.36,275.51,385.79,244.49,424c0,0-22.38,33.77-15.72,59.56,0,0,15.55-27.2,34.15-32.85s27.5-23.5,27.5-23.5,18.46,1,25.47-2.74,32.3-9.31,41.47-5.43c0,0-24-26.36-59.59-25.2,0,0-22.88-.21-8.08-48s37.48-85.48,105.09-92c0,0,3.67,48.83-18.45,69.2,0,0,53.2-14,74.34-67.19,0,0,41.39,10.74,84.32,1.87,0,0,25.83-3.59,43.15,3.38,33.48,13.48,70,14,48.83-3.67-13.84-11.6-32-20.27-32-20.27s14.52-21.55-16-45.26-57.53-36.48-73.73-41.3-39.58-8.62-68.81-21-60.19-30.17-99.81-13.15C336.67,116.47,401.4,139.11,364.87,152Z" transform="translate(-77.57 -109.47)"/></g></svg>